# xmcd
#
# Track frame offsets: 
#        150
#        27846
#        48842
#        73223
#        92745
#        99794
#        130021
#        146653
#        181976
#        204532
#        234753
#        243547
#
# Disc length: 3993 seconds
#
# Revision: 1
# Processed by: cddbd v1.5.2PL0 Copyright (c) Steve Scherf et al.
# Submitted via: ExactAudioCopy v0.99pb4
#
DISCID=9b0f970c
DTITLE=Teena Marie - It Must Be Magic
DYEAR=1981
DGENRE=Funk
TTITLE0=It Must Be Magic
TTITLE1=Revolution
TTITLE2=Where's California
TTITLE3=365
TTITLE4=Opus 111 (Does Anybody Care)
TTITLE5=Square Biz
TTITLE6=The Ballad of Cradle Rob And Me
TTITLE7=Portuguese Love
TTITLE8=Yes Indeed
TTITLE9=Square Biz (Instrumental)
TTITLE10=Someday We'll All Be Free
TTITLE11=Deja Vu (I've Been Here Before)
EXTD=
EXTT0=
EXTT1=
EXTT2=
EXTT3=
EXTT4=
EXTT5=
EXTT6=
EXTT7=
EXTT8=
EXTT9=
EXTT10=
EXTT11=
PLAYORDER=
